<svg xmlns="http://www.w3.org/2000/svg" xmlns:xlink="http://www.w3.org/1999/xlink" viewBox="0,0,256,256" width="50px" height="50px"><g fill-opacity="0" fill="#dddddd" fill-rule="nonzero" stroke="none" stroke-width="1" stroke-linecap="butt" stroke-linejoin="miter" stroke-miterlimit="10" stroke-dasharray="" stroke-dashoffset="0" font-family="none" font-weight="none" font-size="none" text-anchor="none" style="mix-blend-mode: normal"><path d="M0,256v-256h256v256z" id="bgRectangle"></path></g><g fill="#ffffff" fill-rule="nonzero" stroke="none" stroke-width="1" stroke-linecap="butt" stroke-linejoin="miter" stroke-miterlimit="10" stroke-dasharray="" stroke-dashoffset="0" font-family="none" font-weight="none" font-size="none" text-anchor="none" style="mix-blend-mode: normal"><g transform="scale(5.12,5.12)"><path d="M46,11l-2.96,-3.96c-1.22,-1.22 -3.08,-1.52 -4.62,-0.75l-1.42,0.71l-5,-5h-14l-5,5l-1.42,-0.71c-1.54,-0.77 -3.4,-0.47 -4.62,0.75l-2.96,3.96l2,3l-2,4l5.77,17.47c0.79,2.28 2.38,4.19 4.47,5.38l10.76,6.15l10.76,-6.15c2.09,-1.19 3.68,-3.1 4.47,-5.38l5.77,-17.47l-2,-4zM25,40l-6,-6c0,0 5,-3 6,-3c1,0 6,3 6,3zM38.68,18.76l-4.68,6.24l0.57,0.85c0.41,0.61 0.61,1.32 0.61,2.02c0,0.78 -0.24,1.55 -0.73,2.19c-0.52,0.7 -1.29,1.26 -2.04,1.59c-0.51,0.23 -1.01,0.35 -1.41,0.35c-0.9,0 -2.617,-1.621 -5,-3.331v-1.102l4.515,-2.709c0.369,-0.221 0.555,-0.654 0.462,-1.074l-1.459,-6.566c0.174,-0.406 0.444,-0.744 0.845,-0.964l5.637,-2.254l-3,-1h-2l-0.014,0.014c-0.1,0.002 -0.202,0.004 -0.303,0.038l-3,1c-0.486,0.162 -0.771,0.666 -0.66,1.166l1.844,8.296l-3.867,2.32l-3.868,-2.321l1.844,-8.296c0.111,-0.5 -0.174,-1.003 -0.66,-1.166l-3,-1c-0.101,-0.034 -0.202,-0.036 -0.303,-0.038l-0.013,-0.013h-2l-3,1l5.638,2.253c0.401,0.22 0.671,0.558 0.845,0.964l-1.459,6.566c-0.093,0.42 0.092,0.853 0.461,1.074l4.515,2.709v1.126c-2.447,1.744 -4.116,3.308 -5,3.308c-0.4,0 -0.9,-0.12 -1.41,-0.35c-0.75,-0.33 -1.52,-0.89 -2.04,-1.59c-0.93,-1.23 -0.98,-2.92 -0.12,-4.21l0.57,-0.85l-4.68,-6.24c-0.79,-1.05 -0.8,-2.48 -0.04,-3.55l3.72,-6.21l2.73,0.55c0.38,0.08 0.77,0.11 1.16,0.11c1.08,0 2.16,-0.29 3.1,-0.85c0.93,-0.56 1.97,-0.84 3.01,-0.84c1.04,0 2.08,0.28 3.01,0.84c1.28,0.76 2.8,1.03 4.26,0.74l2.73,-0.55l3.72,6.21c0.76,1.07 0.75,2.5 -0.04,3.55z"></path></g></g></svg>